<svg width="24" height="24" viewBox="0 0 24 24" fill="none" xmlns="http://www.w3.org/2000/svg">
<path d="M5.58291 1.17188V1.17656C4.41104 1.32656 3.3751 2.67656 3.3751 4.40156C3.3751 5.35781 3.70791 6.20156 4.19541 6.7875L4.67354 7.35938L3.9376 7.49531C3.29541 7.61719 2.82197 7.95937 2.42822 8.50312C2.02979 9.04219 1.72979 9.79219 1.51885 10.65C1.13447 12.225 0.009375 14.1516 0 15.8297H3.10791L3.66572 23.2547H8.17979L8.67197 15.8297H11.5C11.5 14.1328 10.622 12.1828 10.2704 10.5938C10.0829 9.72656 9.79228 8.98125 9.39385 8.44219C8.99072 7.90781 8.49385 7.56563 7.77666 7.45781L7.02666 7.34063L7.5001 6.75C7.96885 6.16406 8.28291 5.33438 8.28291 4.40156C8.28291 2.56406 7.12041 1.17656 5.82666 1.17656C5.69072 1.17656 5.60635 1.17188 5.58291 1.17188ZM20.6251 1.54688C19.8188 1.54688 19.172 2.19234 19.172 3C19.172 3.80766 19.8188 4.45312 20.6251 4.45312C21.4313 4.45312 22.0782 3.80766 22.0782 3C22.0782 2.19234 21.4313 1.54688 20.6251 1.54688ZM14.5782 2.57812V4.82812H9.7501V5.67188H14.5782V13.0781H12.0001V13.9219H14.5782V19.0781H9.7501V19.9219H14.5782V21.4219H18.3657C18.3423 21.2859 18.3282 21.1453 18.3282 21C18.3282 20.8547 18.3423 20.7141 18.3657 20.5781H15.422V13.9219H18.3657C18.3423 13.7859 18.3282 13.6453 18.3282 13.5C18.3282 13.3547 18.3423 13.2141 18.3657 13.0781H15.422V3.42188H18.3657C18.3423 3.285 18.3282 3.14391 18.3282 3C18.3282 2.85609 18.3423 2.715 18.3657 2.57812H14.5782ZM20.6251 12.0469C19.8188 12.0469 19.172 12.6938 19.172 13.5C19.172 14.3062 19.8188 14.9531 20.6251 14.9531C21.4313 14.9531 22.0782 14.3062 22.0782 13.5C22.0782 12.6938 21.4313 12.0469 20.6251 12.0469ZM20.6251 19.5469C19.8188 19.5469 19.172 20.1938 19.172 21C19.172 21.8062 19.8188 22.4531 20.6251 22.4531C21.4313 22.4531 22.0782 21.8062 22.0782 21C22.0782 20.1938 21.4313 19.5469 20.6251 19.5469Z" fill="#C8F13A"/>
</svg>
